<svg width="102" height="38" viewBox="0 0 102 38" fill="none" xmlns="http://www.w3.org/2000/svg">
<g clip-path="url(#clip0_23_3602)">
<path d="M10.1445 14.235L19.4993 2.0475L16.89 0L6 14.2372L16.9035 28.5L19.5 26.472L10.1445 14.235ZM0 28.5H3V0.75H0L0 28.5Z" fill="#307FE2"/>
<path fill-rule="evenodd" clip-rule="evenodd" d="M26.3565 27.594C27.6817 28.5375 29.3123 29.0093 31.2495 29.0093C33.1733 29.0093 34.8232 28.5375 36.1995 27.594C37.5885 26.6385 38.652 25.3493 39.3915 23.7262C40.1302 22.104 40.5 20.2733 40.5 18.2362C40.5 16.1985 40.1302 14.3677 39.3915 12.7455C38.652 11.1225 37.5885 9.846 36.1995 8.91525C34.8232 7.97175 33.18 7.5 31.2683 7.5C29.3318 7.5 27.6945 7.965 26.3557 8.8965C25.7738 9.30457 25.2469 9.78605 24.7882 10.329V8.06625H21.75V37.5H25.1715V26.5627C25.533 26.9415 25.9282 27.285 26.3565 27.594ZM24.789 18.2355C24.789 16.7265 25.0057 15.399 25.4385 14.2545C25.872 13.0973 26.5282 12.198 27.4072 11.5568C28.287 10.9028 29.3948 10.5757 30.7328 10.5757C32.1353 10.5757 33.288 10.9147 34.1925 11.5942C35.1097 12.2737 35.7855 13.1918 36.2183 14.349C36.6645 15.5063 36.888 16.8015 36.888 18.2355C36.888 19.683 36.6645 20.9903 36.219 22.1603C35.7727 23.3175 35.1038 24.2363 34.212 24.915C33.3195 25.5945 32.1922 25.9342 30.8287 25.9342C29.4397 25.9342 28.2997 25.6073 27.4072 24.9525C26.5155 24.2857 25.8533 23.3745 25.4198 22.2172C24.9998 21.0472 24.789 19.7197 24.789 18.2355ZM47.5298 27.915C49.0463 28.8053 50.8177 29.25 52.8442 29.25C54.8452 29.25 56.649 28.7542 58.2547 27.762C59.8732 26.757 61.0845 25.3455 61.887 23.5267L58.6177 22.401C58.0447 23.571 57.2542 24.468 56.2477 25.0905C55.2405 25.7137 54.0555 26.0257 52.6912 26.0257C50.6647 26.0257 49.104 25.3582 48.0075 24.0225C47.0595 22.8675 46.521 21.3022 46.3935 19.329H62.2312C62.3332 16.887 62.0145 14.7817 61.2757 13.014C60.549 11.2462 59.4533 9.885 57.987 8.931C56.535 7.977 54.7695 7.5 52.692 7.5C50.6902 7.5 48.9443 7.9515 47.4533 8.8545C45.9743 9.74475 44.8208 11.0167 43.9928 12.6705C43.164 14.3115 42.75 16.257 42.75 18.5085C42.75 20.658 43.17 22.5405 44.0115 24.156C44.853 25.7588 46.0253 27.0113 47.529 27.9143L47.5298 27.915ZM58.7025 16.5997C58.5135 14.8125 58.0267 13.4257 57.2407 12.441C56.2463 11.181 54.768 10.5518 52.8052 10.5518C50.7022 10.5518 49.1033 11.226 48.0068 12.5745C47.184 13.587 46.6695 14.928 46.4647 16.5997H58.7025ZM70.5938 29.25C69.09 29.25 67.8278 28.9703 66.8085 28.41C65.8013 27.8378 65.037 27.0878 64.5142 26.1593C64.0042 25.2308 63.75 24.213 63.75 23.1068C63.75 22.0253 63.9487 21.0907 64.347 20.3018C64.7486 19.5107 65.3374 18.8297 66.0622 18.318C66.7957 17.7832 67.6725 17.364 68.6917 17.058C69.7474 16.7698 70.8183 16.5407 71.8995 16.3717C73.0927 16.1685 74.2995 15.984 75.5175 15.8182C76.2893 15.7133 77.0288 15.6112 77.736 15.5115C77.6978 13.9492 77.337 12.774 76.6545 11.9835C75.909 11.106 74.616 10.6672 72.7763 10.6672C71.5575 10.6672 70.4888 10.953 69.5685 11.5252C68.661 12.0855 68.0205 13.0013 67.6478 14.2733L64.4955 13.2997C64.9808 11.4937 65.9198 10.0755 67.3118 9.045C68.7045 8.01525 70.5382 7.5 72.813 7.5C74.6408 7.5 76.2075 7.8375 77.5125 8.511C78.8302 9.1725 79.7752 10.1775 80.3475 11.526C80.6392 12.1851 80.8218 12.8873 80.8882 13.605C80.9625 14.343 81 15.1185 81 15.933V28.6777H78.0532V25.4692C77.3812 26.5185 76.548 27.3518 75.5542 27.972C74.1997 28.824 72.546 29.25 70.5938 29.25ZM71.0977 26.4075C72.291 26.4075 73.323 26.1908 74.193 25.7588C75.0758 25.3133 75.7845 24.735 76.3193 24.0225C76.8426 23.3234 77.1997 22.5141 77.3633 21.6562C77.55 21.0203 77.649 20.3145 77.6618 19.539C77.6753 19.1047 77.6857 18.7267 77.6917 18.4042C77.0092 18.4987 76.3343 18.591 75.6667 18.6803C74.622 18.8197 73.6342 18.9727 72.7012 19.1378C71.8517 19.272 71.011 19.4568 70.1835 19.6912C69.6449 19.8656 69.1261 20.0958 68.6355 20.3783C68.1731 20.6488 67.778 21.0206 67.4798 21.4657C67.194 21.8985 67.0508 22.4385 67.0508 23.0873C67.0508 23.6475 67.1872 24.1815 67.461 24.69C67.7467 25.1992 68.1818 25.6125 68.766 25.9305C69.363 26.2485 70.14 26.4075 71.0977 26.4075Z" fill="#307FE2"/>
<path d="M83.25 26.0753V29.0175C84.6247 29.2995 85.716 29.325 86.523 29.094C87.3307 28.8765 87.9487 28.3958 88.3777 27.6518C88.806 26.8958 89.1405 25.8893 89.3805 24.633C89.5313 23.9025 89.67 23.037 89.7967 22.0373C89.9355 21.0248 90.0615 19.935 90.1748 18.768C90.288 17.589 90.3953 16.3778 90.4965 15.1343C90.6098 13.8908 90.7043 12.6788 90.78 11.4998H98.6325V29.0175H102V8.25H87.7155C87.6015 10.3012 87.4755 12.2243 87.3367 14.019C87.2228 15.6623 87.0778 17.3034 86.9018 18.9412C86.7503 20.4413 86.5673 21.8003 86.3528 23.0183C86.2268 23.787 86.0625 24.4283 85.8608 24.9405C85.6718 25.4408 85.3755 25.7933 84.972 25.998C84.5805 26.1908 84.0067 26.2162 83.25 26.0753Z" fill="#307FE2"/>
</g>
<defs>
<clipPath id="clip0_23_3602">
<rect width="102" height="37.5" fill="white"/>
</clipPath>
</defs>
</svg>
