<svg width="628" height="627" viewBox="0 0 628 627" fill="none" xmlns="http://www.w3.org/2000/svg" xmlns:xlink="http://www.w3.org/1999/xlink">
<path d="M182.588 28.7891C133.123 51.589 90.4519 86.8827 58.7785 131.193C27.105 175.503 7.52225 227.301 1.95959 281.482C-3.60308 335.664 5.0463 390.36 27.0555 440.182C49.0648 490.003 83.6744 533.231 127.474 565.606L276.551 363.921C267.791 357.446 260.869 348.801 256.467 338.836C252.066 328.872 250.336 317.933 251.448 307.096C252.561 296.26 256.477 285.901 262.812 277.039C269.147 268.177 277.681 261.118 287.574 256.558L182.588 28.7891Z" fill="url(#pattern0_2147_8)"/>
<path d="M136.059 571.731C180.457 602.294 231.985 620.893 285.667 625.733C339.35 630.574 393.373 621.492 442.522 599.364C491.671 577.236 534.284 542.81 566.248 499.41C598.212 456.01 618.446 405.102 624.996 351.601L376.056 321.12C374.745 331.82 370.699 342.002 364.306 350.682C357.913 359.362 349.39 366.247 339.561 370.673C329.731 375.098 318.926 376.915 308.19 375.947C297.453 374.979 287.148 371.259 278.268 365.146L136.059 571.731Z" fill="url(#pattern1_2147_8)"/>
<path d="M625.862 343.699C631.083 289.751 622.229 235.37 600.162 185.865C578.096 136.36 543.571 93.4217 499.959 61.2406C456.346 29.0595 405.135 8.73521 351.324 2.25131C297.512 -4.23258 242.939 3.34545 192.931 24.2458L289.642 255.649C299.644 251.469 310.559 249.953 321.321 251.25C332.083 252.547 342.325 256.612 351.048 263.048C359.771 269.484 366.675 278.072 371.089 287.973C375.502 297.874 377.273 308.75 376.229 319.54L625.862 343.699Z" fill="url(#pattern2_2147_8)" fill-opacity="0.2"/>
<path d="M625.862 343.699C631.083 289.751 622.229 235.37 600.162 185.865C578.096 136.36 543.571 93.4217 499.959 61.2406C456.346 29.0595 405.135 8.73521 351.324 2.25131C297.512 -4.23258 242.939 3.34545 192.931 24.2458L289.642 255.649C299.644 251.469 310.559 249.953 321.321 251.25C332.083 252.547 342.325 256.612 351.048 263.048C359.771 269.484 366.675 278.072 371.089 287.973C375.502 297.874 377.273 308.75 376.229 319.54L625.862 343.699Z" fill="#DBE1E9" fill-opacity="0.8"/>
<path d="M317.911 77.2368C314.339 76.9585 311.401 75.9355 309.098 74.1679C306.797 72.3837 305.14 70.0396 304.13 67.1357C303.119 64.2317 302.756 60.9436 303.043 57.2714C303.329 53.5992 304.196 50.4069 305.644 47.6946C307.093 44.9822 309.092 42.9313 311.64 41.5418C314.191 40.1357 317.252 39.5718 320.825 39.8502C324.995 40.1752 328.293 41.5187 330.716 43.8808C333.157 46.2442 334.701 49.2733 335.349 52.9682L332.327 53.4599C331.797 50.3928 330.554 47.897 328.598 45.9725C326.659 44.0327 323.995 42.9308 320.605 42.6666C317.664 42.4375 315.161 42.9194 313.095 44.1126C311.046 45.307 309.43 47.0618 308.247 49.3768C307.08 51.6932 306.367 54.4043 306.108 57.5103C305.833 60.6149 306.092 63.4018 306.886 65.871C307.698 68.3248 309.039 70.31 310.911 71.8266C312.783 73.3266 315.19 74.1912 318.131 74.4204C321.521 74.6845 324.323 74.0085 326.539 72.3924C328.771 70.7776 330.386 68.5045 331.383 65.5732L334.293 66.5271C333.08 70.0769 331.085 72.8303 328.308 74.7871C325.548 76.7452 322.082 77.5618 317.911 77.2368Z" fill="#307FE2"/>
<path d="M337.78 78.5673L344.956 43.2896L366.759 47.7241L366.201 50.468L347.215 46.6064L344.489 60.007L360.536 63.2707L359.978 66.0145L343.931 62.7509L341.156 76.3965L360.142 80.2581L359.584 83.0019L337.78 78.5673Z" fill="#307FE2"/>
<path d="M364.252 84.2091L375.394 49.9768L388.302 54.1783C388.635 54.2866 388.987 54.4185 389.357 54.574C389.748 54.7188 390.144 54.9005 390.546 55.119C392.17 55.9455 393.435 57.0407 394.341 58.4047C395.267 59.7579 395.818 61.2693 395.994 62.9389C396.174 64.5926 395.98 66.2911 395.413 68.0344C394.84 69.7935 393.992 71.2964 392.868 72.5429C391.748 73.7737 390.413 74.6712 388.863 75.2356C387.333 75.7893 385.668 75.9223 383.869 75.6346C383.42 75.5587 382.993 75.4722 382.586 75.3749C382.196 75.2828 381.834 75.1826 381.501 75.0743L371.326 71.7626L366.986 85.099L364.252 84.2091ZM372.201 69.0763L382.328 72.3725C382.613 72.4654 382.943 72.5553 383.318 72.6422C383.709 72.7343 384.104 72.8106 384.505 72.871C385.824 73.0197 387.017 72.8558 388.083 72.3792C389.155 71.8867 390.07 71.1766 390.827 70.2489C391.585 69.3212 392.155 68.2709 392.536 67.0981C392.918 65.9254 393.073 64.7489 393.002 63.5688C392.935 62.3729 392.611 61.2683 392.029 60.2552C391.453 59.2263 390.588 58.3838 389.434 57.7279C389.08 57.5249 388.717 57.3456 388.347 57.1901C387.993 57.0398 387.673 56.9182 387.388 56.8253L377.261 53.5291L372.201 69.0763Z" fill="#307FE2"/>
<path d="M400.226 97.4279L413.983 67.2123L402.242 61.867L403.403 59.3186L429.5 71.2006L428.34 73.7489L416.599 68.4036L402.842 98.6192L400.226 97.4279Z" fill="#307FE2"/>
<path d="M438.014 118.216L435.535 116.71L451.587 90.2777L417.714 105.888L415.235 104.382L433.922 73.6121L436.4 75.1174L420.374 101.507L454.222 85.94L456.7 87.4453L438.014 118.216Z" fill="#307FE2"/>
<path d="M452.414 129.229L455.345 125.587C453.705 124.674 452.355 123.481 451.295 122.007C450.258 120.531 449.587 118.879 449.282 117.051C448.978 115.222 449.118 113.293 449.704 111.262C450.291 109.23 451.399 107.202 453.029 105.176C454.669 103.138 456.413 101.621 458.262 100.627C460.12 99.6194 461.975 99.0689 463.826 98.9752C465.687 98.8685 467.45 99.1637 469.114 99.8608C470.791 100.568 472.251 101.625 473.493 103.032L474.982 101.181L477.222 102.984L475.733 104.834C477.373 105.747 478.712 106.942 479.749 108.418C480.799 109.904 481.471 111.568 481.765 113.409C482.07 115.237 481.929 117.167 481.343 119.198C480.767 121.217 479.659 123.245 478.018 125.284C476.389 127.309 474.644 128.826 472.786 129.833C470.927 130.84 469.072 131.391 467.221 131.485C465.37 131.578 463.606 131.271 461.929 130.564C460.276 129.854 458.828 128.796 457.585 127.389L454.654 131.032L452.414 129.229ZM457.116 123.386L471.754 105.194C470.628 103.988 469.366 103.123 467.97 102.598C466.587 102.084 465.157 101.907 463.681 102.067C462.217 102.237 460.771 102.732 459.343 103.55C457.927 104.379 456.608 105.553 455.385 107.073C454.173 108.579 453.314 110.112 452.807 111.672C452.314 113.243 452.145 114.755 452.303 116.208C452.473 117.671 452.962 119.017 453.771 120.245C454.593 121.484 455.708 122.531 457.116 123.386ZM459.356 125.188C460.493 126.381 461.747 127.241 463.12 127.768C464.493 128.295 465.907 128.492 467.363 128.358C468.829 128.211 470.269 127.723 471.685 126.894C473.124 126.062 474.444 124.9 475.646 123.407C476.858 121.901 477.711 120.362 478.205 118.791C478.711 117.231 478.89 115.706 478.741 114.217C478.591 112.728 478.118 111.362 477.319 110.121C476.521 108.88 475.413 107.838 473.994 106.996L459.356 125.188Z" fill="#307FE2"/>
<path d="M487.275 162.43L485.28 160.325L507.723 139.05L470.936 145.194L468.941 143.089L495.067 118.322L497.062 120.427L474.655 141.668L511.407 135.558L513.402 137.663L487.275 162.43Z" fill="#307FE2"/>
<path d="M491.029 167.122L519.934 145.663L521.648 147.971L507.918 158.164L531.856 161.721L534.121 164.772L509.963 161.254L506.11 187.436L503.815 184.344L507.517 158.462L492.743 169.43L491.029 167.122Z" fill="#307FE2"/>
<path d="M505.518 186.524L543.06 179.51L544.852 182.603L520.093 211.682L518.564 209.043L542.276 181.149L543.003 182.403L507.047 189.163L505.518 186.524ZM515.993 186.551L518.351 185.185L527.625 201.193L525.267 202.559L515.993 186.551Z" fill="#307FE2"/>
<path d="M525.434 224.034L555.878 210.789L550.732 198.96L553.299 197.843L564.738 224.138L562.171 225.255L557.025 213.426L526.581 226.67L525.434 224.034Z" fill="#307FE2"/>
<path d="M531.996 239.277L566.566 229.233L567.368 231.994L553.9 235.907L556.886 246.182C556.983 246.518 557.072 246.883 557.152 247.276C557.247 247.665 557.318 248.087 557.363 248.542C557.593 250.35 557.399 252.012 556.781 253.528C556.183 255.055 555.244 256.361 553.962 257.445C552.701 258.54 551.182 259.346 549.405 259.862C547.645 260.373 545.933 260.515 544.27 260.287C542.623 260.054 541.13 259.455 539.791 258.49C538.473 257.537 537.424 256.227 536.645 254.562C536.455 254.148 536.289 253.754 536.145 253.379C536.002 253.004 535.881 252.649 535.783 252.313L531.996 239.277ZM535.487 241.256L538.458 251.484C538.537 251.756 538.649 252.079 538.792 252.454C538.936 252.829 539.101 253.189 539.288 253.533C539.911 254.723 540.72 255.625 541.714 256.239C542.724 256.848 543.818 257.207 544.995 257.316C546.188 257.421 547.377 257.301 548.562 256.957C549.746 256.613 550.814 256.077 551.765 255.349C552.717 254.622 553.448 253.732 553.958 252.682C554.484 251.626 554.692 250.429 554.581 249.09C554.554 248.699 554.492 248.309 554.397 247.92C554.317 247.527 554.238 247.194 554.159 246.922L551.188 236.695L535.487 241.256ZM539.843 266.285L574.413 256.241L575.215 259.002L540.645 269.046L539.843 266.285Z" fill="#307FE2"/>

</svg>
