<svg width="628" height="627" viewBox="0 0 628 627" fill="none" xmlns="http://www.w3.org/2000/svg" xmlns:xlink="http://www.w3.org/1999/xlink">
<path d="M182.588 28.7891C133.123 51.589 90.4519 86.8827 58.7785 131.193C27.105 175.503 7.52225 227.301 1.95959 281.482C-3.60308 335.664 5.0463 390.36 27.0555 440.182C49.0648 490.003 83.6744 533.231 127.474 565.606L276.551 363.921C267.791 357.446 260.869 348.801 256.467 338.836C252.066 328.872 250.336 317.933 251.448 307.096C252.561 296.26 256.477 285.901 262.812 277.039C269.147 268.177 277.681 261.118 287.574 256.558L182.588 28.7891Z" fill="#DBE1E9"/>
<path d="M136.059 571.731C180.457 602.294 231.985 620.893 285.667 625.733C339.35 630.574 393.373 621.492 442.522 599.364C491.671 577.236 534.284 542.81 566.248 499.41C598.212 456.01 618.446 405.102 624.996 351.601L376.056 321.12C374.745 331.82 370.699 342.002 364.306 350.682C357.913 359.362 349.39 366.247 339.561 370.673C329.731 375.098 318.926 376.915 308.19 375.947C297.453 374.979 287.148 371.259 278.268 365.146L136.059 571.731Z" fill="#DBE1E9"/>
<path d="M625.862 343.699C631.083 289.751 622.229 235.37 600.162 185.865C578.096 136.36 543.571 93.4217 499.959 61.2406C456.346 29.0595 405.135 8.73521 351.324 2.25131C297.512 -4.23258 242.939 3.34545 192.931 24.2458L289.642 255.649C299.644 251.469 310.559 249.953 321.321 251.25C332.083 252.547 342.325 256.612 351.048 263.048C359.771 269.484 366.675 278.072 371.089 287.973C375.502 297.874 377.273 308.75 376.229 319.54L625.862 343.699Z" fill="#DBE1E9" fill-opacity="0.2"/>
<path d="M625.862 343.699C631.083 289.751 622.229 235.37 600.162 185.865C578.096 136.36 543.571 93.4217 499.959 61.2406C456.346 29.0595 405.135 8.73521 351.324 2.25131C297.512 -4.23258 242.939 3.34545 192.931 24.2458L289.642 255.649C299.644 251.469 310.559 249.953 321.321 251.25C332.083 252.547 342.325 256.612 351.048 263.048C359.771 269.484 366.675 278.072 371.089 287.973C375.502 297.874 377.273 308.75 376.229 319.54L625.862 343.699Z" fill="#DBE1E9" fill-opacity="0.8"/>
</svg>
