<svg width="178" height="62" viewBox="0 0 178 62" fill="none" xmlns="http://www.w3.org/2000/svg">
<path d="M11.4476 26.5088C7.5224 26.5088 4.25139 25.6002 1.59824 23.783V17.0956C2.65223 18.0769 4.10601 18.8765 5.95958 19.567C7.81316 20.2576 9.55769 20.5847 11.1932 20.5847C13.7737 20.5847 15.0821 19.9305 15.0821 18.5857C15.0821 17.8225 14.6823 17.4954 14.1008 17.0956C13.81 16.8412 12.9014 16.5868 12.4653 16.4414L10.1756 15.7508L8.32198 15.2057L6.65013 14.5515C5.92324 14.2607 5.37807 14.0063 4.97828 13.7519C4.25139 13.2067 3.05202 12.3345 2.50685 11.4258C2.03437 10.5172 1.59824 9.17248 1.59824 7.68235C1.59824 2.77584 5.4871 0.049997 11.593 0.049997C14.6823 0.049997 17.5535 0.740543 20.2066 2.15798V8.44559C19.08 7.75504 17.7352 7.17353 16.1724 6.70105C14.6096 6.22857 13.1195 5.97416 11.6657 5.97416C9.44866 5.97416 8.32198 6.51933 8.32198 7.64601C8.32198 8.11849 8.61274 8.48193 9.37597 8.80903L10.539 9.20882C11.3022 9.46323 12.9741 9.89937 14.0281 10.2265C16.4632 11.026 18.3894 12.0437 19.7705 13.2431C21.1516 14.4424 21.8421 16.1506 21.8421 18.3313C21.8421 20.8391 20.8608 22.8017 18.9346 24.2918C17.0083 25.7819 14.5006 26.5088 11.4476 26.5088ZM37.6233 26H31.0813V6.30126H23.449V0.558821H45.292V6.30126H37.6233V26ZM48.4259 15.351V0.558821H54.9679V15.6782C54.9679 18.9128 56.9305 20.4756 59.5837 20.4756C62.3095 20.4756 64.1994 18.9128 64.1994 15.6782V0.558821H70.7415V15.351C70.7415 18.8765 69.6875 21.6387 67.5795 23.6013C65.4715 25.5275 62.8183 26.5088 59.5837 26.5088C56.349 26.5088 53.6959 25.5275 51.5879 23.6013C49.4799 21.6387 48.4259 18.8765 48.4259 15.351ZM85.4417 26H75.3016V0.558821H85.4417C89.585 0.558821 92.965 1.75819 95.5818 4.12059C98.1986 6.48298 99.507 9.53592 99.507 13.2794C99.507 17.0229 98.1986 20.1122 95.5818 22.4746C92.965 24.837 89.585 26 85.4417 26ZM81.8436 6.30126V20.2576H84.9692C89.9121 20.2576 92.7469 17.7498 92.7469 13.2794C92.7469 8.80903 89.9121 6.30126 84.9692 6.30126H81.8436ZM110.277 26H103.735V0.558821H110.277V26ZM123.116 18.4403C124.388 19.7851 125.987 20.4756 127.913 20.4756C129.84 20.4756 131.402 19.7851 132.675 18.4403C133.947 17.0956 134.601 15.351 134.601 13.2794C134.601 11.2078 133.947 9.46323 132.675 8.11849C131.402 6.77374 129.84 6.08319 127.913 6.08319C125.987 6.08319 124.388 6.77374 123.116 8.11849C121.844 9.46323 121.226 11.2078 121.226 13.2794C121.226 15.351 121.844 17.0956 123.116 18.4403ZM137.508 22.6563C134.964 25.2368 131.766 26.5088 127.913 26.5088C124.061 26.5088 120.863 25.2368 118.318 22.6563C115.774 20.0758 114.502 16.9502 114.502 13.2794C114.502 9.60861 115.774 6.48298 118.318 3.90252C120.863 1.32206 124.061 0.049997 127.913 0.049997C131.766 0.049997 134.964 1.32206 137.508 3.90252C140.052 6.48298 141.325 9.60861 141.325 13.2794C141.325 16.9502 140.052 20.0758 137.508 22.6563Z" fill="black" fill-opacity="0.6"/>
<path d="M37.0697 56.5H30.5277V31.0588H49.863V36.8013H37.0697V40.5084H46.6283V46.0328H37.0697V56.5ZM53.2354 45.851V31.0588H59.7774V46.1782C59.7774 49.4128 61.74 50.9756 64.3932 50.9756C67.119 50.9756 69.0089 49.4128 69.0089 46.1782V31.0588H75.5509V45.851C75.5509 49.3765 74.4969 52.1387 72.389 54.1013C70.281 56.0275 67.6278 57.0088 64.3932 57.0088C61.1585 57.0088 58.5053 56.0275 56.3974 54.1013C54.2894 52.1387 53.2354 49.3765 53.2354 45.851ZM92.868 56.5H86.3259V36.8013H78.6936V31.0588H100.537V36.8013H92.868V56.5ZM103.671 45.851V31.0588H110.213V46.1782C110.213 49.4128 112.175 50.9756 114.828 50.9756C117.554 50.9756 119.444 49.4128 119.444 46.1782V31.0588H125.986V45.851C125.986 49.3765 124.932 52.1387 122.824 54.1013C120.716 56.0275 118.063 57.0088 114.828 57.0088C111.594 57.0088 108.94 56.0275 106.833 54.1013C104.725 52.1387 103.671 49.3765 103.671 45.851ZM137.088 56.5H130.546V31.0588H142.504C145.302 31.0588 147.519 31.7857 149.155 33.2758C150.826 34.7296 151.662 36.6195 151.662 38.9092C151.662 42.2166 149.809 44.8697 146.719 46.0691L154.425 56.5H146.901L139.705 46.796H137.088V56.5ZM137.088 36.5832V41.4534H142.14C143.921 41.4534 145.048 40.5447 145.048 39.0546C145.048 37.5645 143.921 36.5832 142.14 36.5832H137.088ZM176.65 56.5H157.024V31.0588H176.359V36.8013H163.566V40.254H173.742V45.7784H163.566V50.7576H176.65V56.5Z" fill="black" fill-opacity="0.6"/>
<path d="M149.135 23.9425C149.835 24.625 150.693 24.975 151.725 24.975C152.758 24.975 153.615 24.625 154.298 23.9425C154.998 23.2425 155.348 22.3675 155.348 21.335C155.348 20.3025 154.998 19.4275 154.298 18.7275C153.615 18.0275 152.758 17.6775 151.725 17.6775C150.693 17.6775 149.835 18.0275 149.135 18.7275C148.453 19.4275 148.103 20.3025 148.103 21.335C148.103 22.3675 148.453 23.2425 149.135 23.9425ZM154.91 24.4325C154.088 25.29 153.038 25.71 151.725 25.71C150.413 25.71 149.345 25.29 148.523 24.4325C147.7 23.575 147.298 22.5425 147.298 21.335C147.298 20.1275 147.7 19.095 148.523 18.2375C149.345 17.38 150.413 16.9425 151.725 16.9425C153.038 16.9425 154.088 17.38 154.91 18.2375C155.733 19.095 156.153 20.1275 156.153 21.335C156.153 22.5425 155.733 23.575 154.91 24.4325ZM160.129 17.87V25.5H159.342V17.87H157.609V17.1525H159.342V15.49C159.342 14.02 160.129 13.1275 161.547 13.1275C162.159 13.1275 162.702 13.25 163.174 13.4775V14.23C162.667 13.985 162.177 13.8625 161.704 13.8625C160.707 13.8625 160.129 14.5275 160.129 15.665V17.1525H163.174V17.87H160.129Z" fill="black" fill-opacity="0.6"/>
<path d="M4.85823 43.21C3.40573 43.21 2.68823 42.3 2.68823 40.8125V35.37H0.553232V34.6525H2.68823V31.9575H3.47573V34.6525H6.59073V35.37H3.47573V40.6025C3.47573 41.95 3.94823 42.475 5.05073 42.475C5.54073 42.475 6.01323 42.3525 6.46823 42.09V42.825C6.10073 43.0875 5.57573 43.21 4.85823 43.21ZM9.80855 37.12V43H9.02104V30.75H9.80855V36.105C10.561 35.195 11.8735 34.4425 13.361 34.4425C15.4785 34.4425 16.5985 35.7025 16.5985 37.925V43H15.811V38.0825C15.811 36.8925 15.4435 36.0525 14.866 35.685C14.306 35.3175 13.781 35.1775 13.1335 35.1775C12.486 35.1775 11.856 35.37 11.226 35.7725C10.596 36.1575 10.1235 36.6125 9.80855 37.12ZM23.5201 43.21C22.2076 43.21 21.1226 42.8075 20.2651 41.985C19.4076 41.1625 18.9701 40.1125 18.9701 38.835C18.9701 37.575 19.3551 36.525 20.1251 35.7025C20.8951 34.8625 21.8926 34.4425 23.1176 34.4425C24.5176 34.4425 25.6026 35.055 26.1451 35.965C26.7051 36.8575 26.9676 37.7675 26.9676 38.6775V38.94H19.7576C19.7751 39.99 20.1426 40.8475 20.8601 41.495C21.5776 42.1425 22.5051 42.475 23.6251 42.475C24.6226 42.475 25.5326 42.2125 26.3201 41.6875V42.4575C25.6551 42.965 24.7276 43.21 23.5201 43.21ZM19.7751 38.2575H26.1801C26.1801 37.05 25.3401 35.1775 23.1001 35.1775C22.1201 35.1775 21.3326 35.4925 20.7376 36.1225C20.1601 36.735 19.8276 37.4525 19.7751 38.2575Z" fill="black" fill-opacity="0.6"/>
</svg>
