<svg width="54" height="45" viewBox="0 0 54 45" fill="none" xmlns="http://www.w3.org/2000/svg">
<path opacity="0.25" d="M21.4658 0L13.0807 32.7419L11.0683 23.3871C14.3106 23.3871 16.9938 24.3548 19.118 26.2903C21.2422 28.2258 22.3043 30.8064 22.3043 34.0323C22.3043 37.2581 21.2422 39.8925 19.118 41.9355C16.9938 43.9785 14.3665 45 11.236 45C7.99379 45 5.31056 43.9785 3.18634 41.9355C1.06211 39.7849 0 37.1505 0 34.0323C0 32.957 0.0559005 31.9355 0.167702 30.9677C0.391304 30 0.726708 28.871 1.17391 27.5806C1.62112 26.1828 2.23602 24.5161 3.01863 22.5806L10.9006 0H21.4658ZM53.1615 0L44.7764 32.7419L42.764 23.3871C46.0062 23.3871 48.6894 24.3548 50.8137 26.2903C52.9379 28.2258 54 30.8064 54 34.0323C54 37.2581 52.9379 39.8925 50.8137 41.9355C48.6894 43.9785 46.0621 45 42.9317 45C39.6894 45 37.0062 43.9785 34.882 41.9355C32.7578 39.7849 31.6957 37.1505 31.6957 34.0323C31.6957 32.957 31.7516 31.9355 31.8634 30.9677C32.087 30 32.4224 28.871 32.8696 27.5806C33.3168 26.1828 33.9317 24.5161 34.7143 22.5806L42.5963 0H53.1615Z" fill="white"/>
</svg>
